<!DOCTYPE svg PUBLIC "-//W3C//DTD SVG 1.1//EN" "http://www.w3.org/Graphics/SVG/1.1/DTD/svg11.dtd">
<!-- Uploaded to: SVG Repo, www.svgrepo.com, Transformed by: SVG Repo Mixer Tools -->
<svg fill="#ffffff" version="1.1" id="Capa_1" xmlns="http://www.w3.org/2000/svg" xmlns:xlink="http://www.w3.org/1999/xlink" width="167px" height="167px" viewBox="0 0 270.774 270.775" xml:space="preserve" stroke="#ffffff">
<g id="SVGRepo_bgCarrier" stroke-width="0"/>
<g id="SVGRepo_tracerCarrier" stroke-linecap="round" stroke-linejoin="round"/>
<g id="SVGRepo_iconCarrier"> <g> <g> <path d="M239.326,139.072c-8.12-8.129-22.284-8.129-30.404,0l-56.894,56.883l3.086-33.529c0.01-0.125,0.022-0.252,0.022-0.378 c0.702-6.54-1.503-12.887-6.121-17.507c-8.12-8.11-22.271-8.11-30.408,0c-2.688,2.688-4.611,6.11-5.58,9.917 c-0.066,0.204-0.113,0.414-0.155,0.624c-0.469,2.127-0.603,4.326-0.404,6.552l-4.467,83.623 c-1.338,7.033,0.851,14.195,5.893,19.244c4.068,4.069,9.377,6.146,15.404,6.237c0.21,0.021,0.42,0.036,0.636,0.036 c0.097,0,0.194,0,0.289-0.005l85.046-4.552c2.114,0.199,4.257,0.078,6.282-0.341c0.473-0.053,0.93-0.174,1.36-0.348 c3.6-0.997,6.851-2.865,9.433-5.454c8.378-8.377,8.378-22.021,0-30.409c-4.565-4.566-10.985-6.781-17.49-6.116 c-0.127,0-0.258,0.011-0.39,0.021l-32.199,2.966l57.072-57.065C247.709,161.089,247.709,147.445,239.326,139.072z"/> <path d="M115.66,108.334c-0.011,0.131-0.021,0.26-0.021,0.389c-0.704,6.535,1.512,12.879,6.124,17.497 c4.063,4.058,9.459,6.293,15.208,6.293c5.745,0,11.142-2.236,15.198-6.293c2.705-2.698,4.625-6.111,5.581-9.891 c0.062-0.209,0.116-0.419,0.163-0.635c0.473-2.123,0.603-4.32,0.404-6.556l4.473-83.621c1.343-7.031-0.836-14.197-5.89-19.239 c-4.085-4.089-9.629-6.535-15.444-6.247c-0.288-0.031-0.6-0.036-0.883-0.026L55.526,4.553c-2.1-0.184-4.212-0.076-6.229,0.339 c-0.501,0.052-0.984,0.176-1.441,0.36c-3.596,1-6.837,2.871-9.406,5.44c-8.381,8.386-8.381,22.027,0,30.402 c4.569,4.569,10.965,6.795,17.443,6.124c0.145,0,0.289-0.011,0.436-0.023l32.208-2.966l-57.074,57.066 c-4.065,4.053-6.302,9.449-6.302,15.195c0,5.747,2.237,11.149,6.297,15.208c4.063,4.063,9.459,6.299,15.205,6.299 c5.743,0,11.14-2.236,15.203-6.294l56.887-56.893L115.66,108.334z"/> </g> </g> </g>
</svg>